<svg width="64" height="64" viewBox="0 0 64 64" xmlns="http://www.w3.org/2000/svg" role="img" aria-label="RAGHUPATI mark">
  <defs>
    <linearGradient id="g" x1="12" y1="8" x2="52" y2="56" gradientUnits="userSpaceOnUse">
      <stop stop-color="#0EA5A8"/>
      <stop offset="1" stop-color="#0B4F6C"/>
    </linearGradient>
  </defs>
  <path d="M32 4 56 18v28L32 60 8 46V18L32 4Z" fill="url(#g)" opacity="0.95"/>
  <path d="M32 12 48 22v20L32 52 16 42V22L32 12Z" fill="#061018" opacity="0.55"/>
  <path d="M32 20c6 0 10 3.5 10 8.5 0 3.2-1.8 5.8-4.6 7.1L32 44l-5.4-8.4C23.8 34.3 22 31.7 22 28.5 22 23.5 26 20 32 20Z" fill="#E6FFFB" opacity="0.92"/>
  <path d="M32 26c2.8 0 5 1.6 5 3.7 0 1.4-.8 2.6-2.1 3.2L32 36l-2.9-2.9c-1.3-.7-2.1-1.9-2.1-3.3 0-2.1 2.2-3.8 5-3.8Z" fill="#0B4F6C" opacity="0.85"/>
</svg>
